<?xml version="1.0" encoding="utf-8"?>
<!-- Generator: Adobe Illustrator 26.0.1, SVG Export Plug-In . SVG Version: 6.00 Build 0)  -->
<svg version="1.1" id="Layer_1" xmlns="http://www.w3.org/2000/svg" xmlns:xlink="http://www.w3.org/1999/xlink" x="0px" y="0px"
	 viewBox="0 0 1080 1080" style="enable-background:new 0 0 1080 1080;" xml:space="preserve">
<style type="text/css">
	.st0{fill:#091E3E;}
</style>
<g>
	<path class="st0" d="M842.23,532.24c11.08,3.24,22.16,6.41,33.24,9.57l-93.39,93.39c-9.72,8.59-16.73,14.32-23.22,20.65
		c-126.33,124.75-253.42,248.82-378.4,374.85H10.51c-1.66-0.45-3.32-0.98-4.98-1.43c138.09-140.96,275.36-281.01,413.98-422.42
		c0.6-0.68,1.28-1.36,1.96-2.03c-38.37-11.38-77.49-23.07-116.76-34.6c-37.69-11.08-75.38-22.01-113.07-33.02l90.6-90.68
		c2.86-2.64,5.58-5.28,8.14-7.69c14.17-13.34,25.55-24.05,36.71-35.05c119.62-118.12,239.02-236.39,358.57-354.5h373.8
		C921.15,190.7,783.43,331.5,644.36,473.74C710.24,493.27,776.2,512.94,842.23,532.24z"/>
	<polygon class="st0" points="1074.47,595.63 1074.47,1030.71 782.08,1030.71 782.08,627.36 644.36,473.74 	"/>
</g>
</svg>
