<?xml version="1.0" standalone="no"?>
<!DOCTYPE svg PUBLIC "-//W3C//DTD SVG 20010904//EN"
 "http://www.w3.org/TR/2001/REC-SVG-20010904/DTD/svg10.dtd">
<svg version="1.0" xmlns="http://www.w3.org/2000/svg"
 width="3005.000000pt" height="2074.000000pt" viewBox="0 0 3005.000000 2074.000000"
 preserveAspectRatio="xMidYMid meet">

<g transform="translate(0.000000,2074.000000) scale(0.100000,-0.100000)"
fill="#000000" stroke="none">
<path d="M11067 20733 c-4 -3 -7 -1792 -7 -3975 l0 -3968 -2059 0 -2060 0 -12
58 c-16 79 -74 243 -114 322 -129 257 -368 496 -625 625 -87 44 -244 98 -350
121 -66 15 -127 19 -275 19 -213 0 -286 -12 -459 -72 -463 -161 -805 -552
-911 -1043 -24 -114 -30 -354 -11 -475 47 -307 179 -569 395 -785 199 -199
432 -325 711 -386 121 -27 429 -27 550 0 279 61 513 188 710 385 150 150 249
303 325 499 l28 72 7228 0 7228 0 4338 4296 c2386 2362 4340 4300 4341 4305 5
13 -4982 12 -5198 -1 -806 -48 -1526 -331 -2137 -838 -73 -61 -460 -435 -917
-887 -435 -431 -2015 -1993 -3511 -3473 l-2720 -2689 -5 3946 -5 3946 -2236 3
c-1230 1 -2239 -1 -2242 -5z m-5369 -7559 c246 -50 446 -249 499 -498 19 -91
12 -237 -16 -326 -43 -138 -160 -286 -283 -358 -280 -166 -644 -97 -840 159
-199 257 -176 619 53 848 157 158 367 220 587 175z"/>
<path d="M1225 16073 c-73 -9 -234 -47 -299 -70 -308 -110 -574 -333 -739
-618 -195 -337 -235 -764 -105 -1133 71 -204 188 -383 355 -542 158 -152 320
-249 526 -315 159 -52 280 -68 468 -63 l158 4 577 -1518 c318 -836 582 -1525
588 -1533 10 -13 1174 -15 9599 -13 l9587 3 -282 362 -283 362 -9086 0 -9085
1 -507 1278 c-278 702 -509 1284 -512 1292 -3 10 6 22 27 35 18 10 80 67 138
125 203 203 325 429 387 720 25 118 25 390 0 509 -82 386 -294 699 -612 903
-157 101 -354 176 -536 202 -96 14 -286 19 -364 9z m369 -741 c339 -117 528
-482 424 -821 -32 -105 -84 -188 -172 -277 -139 -139 -300 -201 -501 -191
-172 8 -305 67 -430 192 -128 129 -185 259 -193 440 -5 131 11 212 63 318 69
140 175 244 320 313 151 71 330 81 489 26z"/>
<path d="M4485 9733 c-13 -34 -1137 -2988 -1146 -3013 l-9 -26 -188 1 c-209 0
-281 -11 -459 -70 -598 -199 -996 -804 -934 -1422 56 -558 416 -1012 943
-1187 144 -49 268 -68 428 -68 212 0 408 43 597 133 260 124 505 365 638 628
111 221 163 510 136 751 -44 388 -232 722 -539 961 l-33 25 509 1285 510 1284
8990 5 8989 5 -282 360 -282 360 -8930 3 c-8499 2 -8931 1 -8938 -15z m-1191
-3769 c114 -30 259 -120 329 -206 190 -232 214 -537 61 -784 -183 -296 -566
-399 -877 -237 -107 56 -221 173 -275 283 -55 112 -72 184 -72 300 0 115 20
202 65 295 102 206 274 326 525 369 43 8 182 -4 244 -20z"/>
<path d="M8700 8375 c-580 -96 -1024 -521 -1147 -1095 -25 -119 -25 -420 0
-538 22 -99 63 -222 105 -315 78 -172 254 -387 417 -512 429 -329 1038 -369
1510 -100 302 173 544 477 638 806 l25 84 416 3 416 2 0 -3355 0 -3355 2225 0
2225 0 0 3213 0 3212 143 143 142 142 1584 -2 1585 -3 1678 -2160 c923 -1188
1956 -2517 2295 -2953 338 -436 654 -833 701 -883 360 -382 861 -632 1389
-694 110 -13 464 -15 2535 -15 1325 0 2408 2 2408 6 0 4 -4308 5501 -5428
6927 l-305 387 -7004 0 c-5594 0 -7004 3 -7007 13 -76 256 -155 409 -300 579
-112 131 -274 257 -434 337 -77 39 -239 94 -342 116 -105 23 -362 28 -470 10z
m410 -731 c112 -38 176 -79 265 -168 63 -63 90 -100 122 -166 97 -198 96 -398
-2 -597 -76 -154 -215 -275 -385 -334 -56 -20 -85 -23 -205 -23 -120 0 -149 3
-205 23 -170 59 -309 180 -385 334 -73 147 -90 275 -60 433 30 158 145 329
282 420 69 46 185 92 261 104 89 14 226 2 312 -26z"/>
</g>
</svg>
